<svg xmlns="http://www.w3.org/2000/svg" width="140" height="39" fill="none"><g clip-path="url(#a)"><path fill="#9C9C9C" d="M11.394 23.087v5.076c0 2.539-1.12 3.454-2.9 3.454-1.78 0-2.899-.915-2.899-3.454V8.973c0-2.538 1.12-3.504 2.9-3.504 1.78 0 2.899.966 2.899 3.504v3.808h5.29V9.328c0-5.686-2.849-8.935-8.342-8.935C2.848.393 0 3.642 0 9.328v18.48c0 5.686 2.848 8.936 8.342 8.936 5.493 0 8.342-3.25 8.342-8.936v-4.72h-5.29ZM32.503.8 38.2 36.338h-5.646l-.967-6.448h-6.866l-.967 6.448h-5.137L24.314.799h8.189Zm-4.425 6.295-2.645 17.973h5.391L28.18 7.093h-.101l-.001.001ZM58.19 36.338h-5.697c-.305-.914-.509-1.473-.509-4.367v-5.584c0-3.3-1.119-4.519-3.662-4.519h-1.933v14.47h-5.595V.799h8.444c5.798 0 8.29 2.691 8.29 8.175v2.791c0 3.656-1.17 5.991-3.662 7.159 2.798 1.269 3.713 3.909 3.713 7.616v5.482c0 1.727.052 2.995.611 4.316ZM49.085 5.876h-2.696v10.916h2.187c2.086 0 3.357-.913 3.357-3.757V9.532c0-2.538-.864-3.656-2.848-3.656ZM75.242.799l5.697 35.539h-5.646l-.966-6.448H67.46l-.966 6.448h-5.138L67.053.799h8.189Zm-4.425 6.295-2.645 17.973h5.392L70.919 7.093h-.102v.001ZM86.115.8h-5.646l5.493 35.539h8.342L99.797.799H94.66l-4.222 28.988h-.102L86.115.8Zm27.098 0 5.697 35.539h-5.646l-.966-6.448h-6.867l-.967 6.448h-5.137L105.024.799h8.189Zm-4.425 6.295-2.645 17.973h5.392L108.89 7.093h-.102v.001Zm25.464 29.244H140V.799h-4.985v21.272h-.102L129.267.799h-7.019v35.539h5.036V10.597h.101l6.867 25.741Z"/></g><defs><clipPath id="a"><path fill="#fff" d="M0 .393h140v37.928H0z"/></clipPath></defs></svg>