<svg xmlns="http://www.w3.org/2000/svg" width="152" height="40" fill="none"><g fill="#9C9C9C" clip-path="url(#a)"><path fill-rule="evenodd" d="M23.024 17.211h2.717c2.808 0 4.325 3.286 2.496 5.415l-2.66 3.094a7.376 7.376 0 0 0 2.719 4.646 7.419 7.419 0 0 0 10.021-.768 7.367 7.367 0 0 0 1.975-5.008 2.455 2.455 0 0 1 2.466-2.46c.654.001 1.28.26 1.743.721a2.46 2.46 0 0 1 .724 1.74 12.271 12.271 0 0 1-6.664 10.915 12.366 12.366 0 0 1-15.537-3.539 12.367 12.367 0 0 1-19.873-.188A12.27 12.27 0 0 1 .822 24.59a2.453 2.453 0 0 1 1.523-2.273 2.47 2.47 0 0 1 2.687.535c.463.46.723 1.086.724 1.738a7.365 7.365 0 0 0 1.966 5.02 7.406 7.406 0 0 0 7.598 2.046 7.406 7.406 0 0 0 3.432-2.229 7.384 7.384 0 0 0 1.72-3.708l-2.662-3.094c-1.828-2.128-.312-5.413 2.5-5.413h2.714Z" clip-rule="evenodd"/><path d="M34.535 10.653a4.937 4.937 0 0 0 3.488-1.439 4.921 4.921 0 0 0 1.446-3.48 4.914 4.914 0 0 0-3.047-4.545 4.938 4.938 0 0 0-1.887-.373 4.938 4.938 0 0 0-3.487 1.44 4.92 4.92 0 0 0-1.446 3.479 4.913 4.913 0 0 0 1.446 3.48 4.93 4.93 0 0 0 3.487 1.438Zm-23.023 0a4.938 4.938 0 0 0 3.487-1.439 4.919 4.919 0 0 0 1.446-3.48 4.913 4.913 0 0 0-1.446-3.478 4.93 4.93 0 0 0-3.487-1.44 4.938 4.938 0 0 0-3.488 1.44 4.92 4.92 0 0 0-1.446 3.479 4.913 4.913 0 0 0 1.446 3.48 4.93 4.93 0 0 0 3.488 1.438Zm67.933-8.635c.76 0 1.384.216 1.872.65.488.433.732 1.002.732 1.706v24.29c0 .731-.23 1.313-.692 1.746-.46.433-1.071.65-1.83.65-.76 0-1.37-.217-1.832-.649-.461-.434-.692-1.016-.692-1.747v-1.016c-.597 1.11-1.465 1.977-2.605 2.6-1.112.622-2.387.934-3.825.934-1.71 0-3.242-.433-4.598-1.3-1.33-.866-2.374-2.085-3.134-3.656-.733-1.597-1.1-3.424-1.1-5.483 0-2.058.367-3.858 1.1-5.402.76-1.543 1.804-2.735 3.134-3.575 1.329-.839 2.862-1.26 4.598-1.26 1.438 0 2.713.3 3.826.895a6.204 6.204 0 0 1 2.563 2.518V4.293c0-.677.217-1.22.65-1.625.463-.434 1.073-.65 1.833-.65Zm-7.53 25.224c1.629 0 2.877-.555 3.745-1.666.895-1.11 1.343-2.695 1.343-4.752 0-2.058-.448-3.629-1.343-4.71-.868-1.112-2.102-1.668-3.703-1.668-1.628 0-2.89.542-3.785 1.626-.895 1.083-1.343 2.64-1.343 4.671 0 2.059.448 3.655 1.343 4.793.895 1.138 2.143 1.706 3.744 1.706Zm24.442 3.94c-2.034 0-3.825-.42-5.371-1.259-1.52-.84-2.7-2.044-3.541-3.615-.841-1.571-1.262-3.399-1.262-5.484s.42-3.9 1.262-5.442c.84-1.571 2.02-2.776 3.54-3.616 1.547-.839 3.338-1.26 5.372-1.26 2.035 0 3.812.42 5.331 1.26a8.44 8.44 0 0 1 3.541 3.616c.841 1.543 1.262 3.357 1.262 5.442 0 2.086-.421 3.913-1.262 5.484a8.439 8.439 0 0 1-3.541 3.615c-1.519.839-3.297 1.259-5.331 1.259Zm-.04-3.94c1.655 0 2.916-.542 3.784-1.625.869-1.083 1.303-2.68 1.303-4.793 0-2.085-.434-3.669-1.303-4.752-.868-1.11-2.116-1.666-3.744-1.666-1.627 0-2.89.555-3.784 1.666-.868 1.083-1.303 2.667-1.303 4.752 0 2.112.434 3.71 1.303 4.793.868 1.083 2.116 1.625 3.744 1.625Zm31.221-16.653c.76 0 1.37.216 1.831.648.462.435.692 1.017.692 1.747V29.03c0 3.114-.868 5.47-2.604 7.068-1.737 1.597-4.3 2.396-7.692 2.396-2.957 0-5.426-.554-7.406-1.665-1.004-.596-1.506-1.314-1.506-2.153 0-.596.136-1.069.407-1.421a1.427 1.427 0 0 1 1.139-.53c.245 0 .543.056.896.164.352.135.719.285 1.098.447.85.36 1.719.672 2.605.934.787.216 1.682.325 2.686.325 3.554 0 5.331-1.733 5.331-5.2v-2.599c-.597 1.11-1.465 1.976-2.604 2.6-1.14.596-2.442.893-3.907.893-1.737 0-3.283-.406-4.64-1.217-1.329-.84-2.373-2.005-3.133-3.494-.76-1.49-1.14-3.209-1.14-5.159 0-1.95.367-3.669 1.099-5.158.76-1.517 1.818-2.681 3.174-3.494 1.357-.839 2.903-1.26 4.64-1.26 1.465 0 2.767.312 3.907.935a6.087 6.087 0 0 1 2.604 2.56v-1.057c0-.704.231-1.272.692-1.707.461-.432 1.072-.648 1.831-.648Zm-7.691 15.76c1.628 0 2.889-.53 3.784-1.584.923-1.057 1.384-2.505 1.384-4.347 0-1.868-.461-3.33-1.384-4.387-.895-1.056-2.156-1.584-3.784-1.584-1.601 0-2.863.528-3.785 1.584-.922 1.056-1.384 2.519-1.384 4.387 0 1.842.462 3.29 1.384 4.347.922 1.056 2.184 1.584 3.785 1.584Zm22.686 4.833c-2.957 0-5.344-.582-7.162-1.747-.868-.514-1.302-1.246-1.302-2.193 0-.542.149-.975.447-1.3.299-.352.665-.528 1.099-.528.461 0 1.099.217 1.913.65.868.407 1.655.718 2.36.935.733.216 1.655.324 2.767.324 1.14 0 2.022-.19 2.646-.569.651-.38.976-.906.976-1.584 0-.46-.135-.825-.407-1.096-.244-.271-.705-.515-1.383-.732-.652-.243-1.655-.514-3.012-.812-2.414-.487-4.151-1.178-5.209-2.071-1.031-.893-1.546-2.126-1.546-3.696a5.24 5.24 0 0 1 1.058-3.21c.705-.974 1.668-1.719 2.889-2.234 1.248-.54 2.659-.812 4.232-.812 1.14 0 2.239.15 3.297.447 1.009.25 1.971.66 2.849 1.218.868.542 1.302 1.26 1.302 2.154 0 .54-.149 1.002-.448 1.38-.298.352-.665.529-1.099.529a2.62 2.62 0 0 1-.895-.163c-.357-.181-.71-.37-1.058-.569-.787-.406-1.465-.703-2.035-.893-.57-.216-1.275-.325-2.116-.325-1.004 0-1.804.203-2.401.608-.57.407-.855.963-.855 1.666 0 .677.299 1.192.896 1.543.597.353 1.75.705 3.459 1.057 1.818.38 3.242.812 4.273 1.3 1.031.487 1.763 1.097 2.197 1.828.462.731.692 1.665.692 2.802 0 1.842-.773 3.318-2.319 4.428-1.52 1.11-3.555 1.665-6.105 1.665Z"/></g><defs><clipPath id="a"><path fill="#fff" d="M0 .393h152V39.32H0z"/></clipPath></defs></svg>