<svg xmlns="http://www.w3.org/2000/svg" width="164" height="39" fill="none"><g clip-path="url(#a)"><path fill="#9C9C9C" d="M2.688 32.165c-.812 0-1.47-.252-1.974-.755C.238 30.907 0 30.25 0 29.44V4.916c0-.81.224-1.44.672-1.886.476-.447 1.12-.671 1.932-.671h14.742c1.708 0 2.562.727 2.562 2.18 0 1.425-.854 2.138-2.562 2.138H5.334v8.049h11.172c1.708 0 2.562.726 2.562 2.18 0 1.425-.854 2.137-2.562 2.137H5.334V29.44c0 .81-.238 1.467-.714 1.97-.476.503-1.12.755-1.932.755Zm24.925 0c-.756 0-1.386-.21-1.89-.63-.476-.446-.714-1.075-.714-1.886V4.623c0-.81.238-1.426.714-1.845.504-.419 1.134-.629 1.89-.629s1.386.21 1.89.63c.504.418.756 1.033.756 1.844v25.026c0 .81-.252 1.44-.756 1.887-.504.419-1.134.629-1.89.629Zm24.314-5.87c.476 0 .854.182 1.134.546.308.363.462.852.462 1.467 0 .866-.518 1.593-1.554 2.18-.952.53-2.03.964-3.234 1.3-1.204.307-2.352.46-3.444.46-3.304 0-5.922-.95-7.854-2.85-1.932-1.9-2.898-4.5-2.898-7.797 0-2.096.42-3.955 1.26-5.576.84-1.62 2.016-2.878 3.528-3.773 1.54-.894 3.276-1.341 5.208-1.341 1.848 0 3.458.405 4.83 1.216 1.372.81 2.436 1.956 3.192 3.437.756 1.481 1.134 3.228 1.134 5.24 0 1.202-.532 1.803-1.596 1.803h-12.39c.168 1.928.714 3.353 1.638 4.276.924.894 2.268 1.341 4.032 1.341.896 0 1.68-.112 2.352-.335.7-.224 1.484-.531 2.352-.923.84-.447 1.456-.67 1.848-.67ZM44.66 14.6c-1.428 0-2.576.447-3.444 1.341-.84.895-1.344 2.18-1.512 3.857h9.492c-.056-1.705-.476-2.99-1.26-3.857-.784-.894-1.876-1.341-3.276-1.341Zm30.723 13.456c.504.503.756 1.076.756 1.72 0 .614-.238 1.173-.714 1.676-.476.475-1.036.713-1.68.713-.7 0-1.302-.294-1.806-.88l-5.922-6.54-5.922 6.54c-.532.558-1.134.838-1.806.838-.616 0-1.162-.238-1.638-.713s-.714-1.02-.714-1.635c0-.643.252-1.216.756-1.719l6.132-6.665-5.796-6.288c-.504-.503-.756-1.076-.756-1.719s.238-1.188.714-1.635c.476-.475 1.022-.712 1.638-.712.672 0 1.274.28 1.806.838l5.586 6.12 5.586-6.12c.532-.559 1.134-.838 1.806-.838.644 0 1.19.237 1.638.712.476.447.714.992.714 1.635s-.252 1.216-.756 1.719l-5.796 6.288 6.174 6.665Zm23.236-11.402c1.708.475 3.024 1.341 3.948 2.599.952 1.258 1.428 2.795 1.428 4.611 0 2.515-.91 4.486-2.73 5.911-1.792 1.425-4.27 2.138-7.434 2.138H82.995c-.812 0-1.456-.224-1.932-.67-.448-.448-.672-1.077-.672-1.887V4.916c0-.81.224-1.44.672-1.886.476-.447 1.12-.671 1.932-.671H93.41c3.08 0 5.488.685 7.224 2.054 1.764 1.342 2.646 3.228 2.646 5.66 0 1.564-.42 2.92-1.26 4.066-.812 1.146-1.946 1.984-3.402 2.515h.001Zm-12.936-1.845h6.846c3.724 0 5.586-1.383 5.586-4.15 0-1.397-.462-2.431-1.386-3.102-.924-.67-2.324-1.006-4.2-1.006h-6.846v8.258Zm7.56 12.912c1.96 0 3.388-.35 4.284-1.048.896-.699 1.344-1.789 1.344-3.27s-.462-2.585-1.386-3.312c-.896-.726-2.31-1.09-4.242-1.09h-7.56v8.72h7.56Zm17.96 4.444c-.756 0-1.386-.21-1.89-.63-.476-.446-.714-1.075-.714-1.886V4.623c0-.81.238-1.426.714-1.845.504-.419 1.134-.629 1.89-.629s1.386.21 1.89.63c.504.418.756 1.033.756 1.844v25.026c0 .81-.252 1.44-.756 1.887-.504.419-1.134.629-1.89.629Zm17.426.083c-2.1 0-3.948-.433-5.544-1.3-1.568-.866-2.786-2.11-3.654-3.73-.868-1.621-1.302-3.507-1.302-5.66 0-2.151.434-4.024 1.302-5.617.868-1.62 2.086-2.864 3.654-3.73 1.596-.867 3.444-1.3 5.544-1.3 2.1 0 3.934.433 5.502 1.3a8.708 8.708 0 0 1 3.654 3.73c.868 1.593 1.302 3.466 1.302 5.618s-.434 4.038-1.302 5.659a8.708 8.708 0 0 1-3.654 3.73c-1.568.867-3.402 1.3-5.502 1.3Zm-.042-4.066c1.708 0 3.01-.559 3.906-1.677.896-1.118 1.344-2.767 1.344-4.946 0-2.152-.448-3.787-1.344-4.905-.896-1.146-2.184-1.719-3.864-1.719-1.68 0-2.982.573-3.906 1.719-.896 1.118-1.344 2.753-1.344 4.905 0 2.18.448 3.828 1.344 4.946.896 1.118 2.184 1.677 3.864 1.677Zm32.222-17.187c.784 0 1.414.223 1.89.67.476.448.714 1.048.714 1.803v16.559c0 3.213-.896 5.645-2.688 7.294-1.792 1.649-4.438 2.473-7.938 2.473-3.052 0-5.6-.573-7.644-1.719-1.036-.614-1.554-1.355-1.554-2.221 0-.615.14-1.104.42-1.468.308-.363.7-.545 1.176-.545.252 0 .56.056.924.168.364.14.742.294 1.134.461 1.008.42 1.904.74 2.688.964.812.224 1.736.336 2.772.336 3.668 0 5.502-1.789 5.502-5.366V27.72c-.616 1.146-1.512 2.04-2.688 2.683-1.176.615-2.52.922-4.032.922-1.792 0-3.388-.419-4.788-1.258-1.372-.866-2.45-2.068-3.234-3.605-.784-1.537-1.176-3.311-1.176-5.323 0-2.013.378-3.787 1.134-5.325.784-1.564 1.876-2.766 3.276-3.605 1.4-.866 2.996-1.3 4.788-1.3 1.512 0 2.856.322 4.032.965a6.28 6.28 0 0 1 2.688 2.641v-1.09c0-.727.238-1.313.714-1.76.476-.448 1.106-.671 1.89-.671Zm-7.938 16.265c1.68 0 2.982-.545 3.906-1.635.952-1.09 1.428-2.585 1.428-4.485 0-1.929-.476-3.438-1.428-4.528-.924-1.09-2.226-1.635-3.906-1.635-1.652 0-2.954.545-3.906 1.635-.952 1.09-1.428 2.6-1.428 4.528 0 1.9.476 3.395 1.428 4.485.952 1.09 2.254 1.635 3.906 1.635Z"/></g><defs><clipPath id="a"><path fill="#fff" d="M0 .153h164v37.928H0z"/></clipPath></defs></svg>