<svg xmlns="http://www.w3.org/2000/svg" width="139" height="51" fill="none"><g clip-path="url(#a)"><path fill="#9C9C9C" d="M24.912 11.168 20.31 39.412h-6.612l1.68-10.198H8.256L6.61 39.412H0l4.639-28.244h6.575L9.242 23.093h7.122l1.974-11.925h6.574Zm13.561 28.244.22-6.158h-6.1l-1.79 6.158h-6.977l9.388-28.244h12.053l.147 28.244h-6.941Zm-1.497-21.38-2.885 9.965h4.785l.401-9.963-2.301-.001Zm36.807-6.864L69.18 39.412h-6.612l-4.601-15.454-2.484 15.455H48.87l4.639-28.245h6.794l4.53 14.437 2.373-14.437h6.577Zm15.425 0c3.19 0 5.467.863 6.83 2.589.999 1.308 1.497 2.942 1.497 4.904 0 .706-.06 1.451-.181 2.235l-1.425 8.749c-.487 2.954-1.681 5.322-3.58 7.1-1.9 1.78-4.359 2.667-7.38 2.667H74.34l4.64-28.244h10.228Zm-2.302 6.12h-2.374l-2.593 16.004h3.47c1.144 0 2.033-.327 2.666-.98.658-.68 1.108-1.779 1.35-3.295l1.061-6.434a9.512 9.512 0 0 0 .146-1.57c0-2.485-1.241-3.725-3.726-3.725Zm30.206 22.124H98.775l4.641-28.244h18.337l-1.023 6.12h-11.762l-.84 5.296h9.716l-1.022 6.119h-9.717l-.73 4.59h11.762l-1.025 6.12Zm20.865 0H121.32l4.64-28.244h6.575l-3.616 22.125H139l-1.023 6.12ZM73.471 44.44h63.543l-1.985 5.87H71.486l1.985-5.87ZM6.95.404h69.5l-1.986 5.871h-69.5L6.95.405Z"/></g><defs><clipPath id="a"><path fill="#fff" d="M0 .404h139V50.31H0z"/></clipPath></defs></svg>