<svg xmlns="http://www.w3.org/2000/svg" width="208" height="42" fill="none"><g clip-path="url(#a)"><mask id="b" width="208" height="42" x="0" y="0" maskUnits="userSpaceOnUse" style="mask-type:luminance"><path fill="#fff" d="M0 .157h208v40.922H0V.157Z"/></mask><g mask="url(#b)"><path fill="#9C9C9C" fill-rule="evenodd" d="M13.935 38.208a.87.87 0 0 1-.685-.344 2.429 2.429 0 0 1-.45-1.027 13.906 13.906 0 0 1-.25-1.437 17.35 17.35 0 0 1-.106-1.873 112.39 112.39 0 0 1 .014-4.127c.018-.844.026-1.503.026-1.978V11.7c0-.775.005-1.364.014-1.768.009-.404.04-.861.091-1.371.03-.38.096-.755.199-1.121.1-.283.233-.552.395-.805.15-.264.368-.483.633-.632a9.5 9.5 0 0 1 .949-.41c.417-.154.85-.265 1.291-.329a38.09 38.09 0 0 1 1.728-.212V3.6l-.45-.449H1.412l-.422.45V4.84c2.672.159 4.166.915 4.482 2.269.184 1.142.272 2.298.264 3.455v24.081a24.135 24.135 0 0 1-.159 3.746c-.073.194-.18.372-.316.527a9.866 9.866 0 0 1-.645.699c-.18.173-.35.353-.514.541v.923c13.587 0 21.997.088 25.23.265l1.135-3.825-.712-.502c-5.25.66-10.53 1.056-15.819 1.188h-.001Zm25.256-11.025a.73.73 0 0 1-.158.026c-.263 0-.395-.096-.395-.29.001-.874.067-1.748.198-2.612.148-.942.395-1.866.738-2.756.33-.901.784-1.754 1.347-2.532a6.327 6.327 0 0 1 5.128-2.52 4.144 4.144 0 0 1 3.664 1.821 7.232 7.232 0 0 1 1.24 4.167 1.335 1.335 0 0 1-.884 1.24 43.128 43.128 0 0 1-4.416 1.504 297.384 297.384 0 0 0-6.3 1.927.74.74 0 0 0-.162.024Zm15.66 8.229c-3.165 1.916-5.898 2.874-8.198 2.874a7.506 7.506 0 0 1-4.377-1.292 7.826 7.826 0 0 1-2.755-3.23 9.959 9.959 0 0 1-.883-4.181c11.495-3.57 17.295-5.355 17.4-5.355a1.948 1.948 0 0 0 1.555-2.004 7.512 7.512 0 0 0-.883-3.719 6.439 6.439 0 0 0-2.386-2.466 11.569 11.569 0 0 0-3.256-1.293 16.657 16.657 0 0 0-3.785-.41c-2.284-.034-4.55.42-6.642 1.333a12.731 12.731 0 0 0-4.758 3.562 16.183 16.183 0 0 0-2.755 5.011 17.892 17.892 0 0 0-.95 5.816c0 4.062 1.1 7.105 3.296 9.127 1.986 1.846 4.79 2.769 8.41 2.769a13.593 13.593 0 0 0 5.972-1.45 46.108 46.108 0 0 0 6.393-3.853l-.577-1.027-.821-.212ZM90.36 7.6a7.708 7.708 0 0 0-3.876-4.194 16.391 16.391 0 0 0-6.986-1.266 20.554 20.554 0 0 0-5.18.633 15.78 15.78 0 0 0-4.456 1.9 9.144 9.144 0 0 0-3.203 3.443 10.27 10.27 0 0 0-1.187 4.997 7.65 7.65 0 0 0 .883 3.573 9.985 9.985 0 0 0 2.215 2.89 26.91 26.91 0 0 0 3.11 2.36 36.26 36.26 0 0 0 3.402 2.005c1.1.564 2.181 1.162 3.243 1.794.88.497 1.706 1.085 2.465 1.754 1.95 1.811 2.926 3.534 2.926 5.17a6.35 6.35 0 0 1-2.03 4.628 6.672 6.672 0 0 1-4.877 2.019 6.971 6.971 0 0 1-5.576-2.533 8.68 8.68 0 0 1-2.148-5.778l-1.027-.369-5.246 5.882a12.276 12.276 0 0 0 4.72 4.05 13.867 13.867 0 0 0 6.195 1.411 19.637 19.637 0 0 0 5.774-.898 21.327 21.327 0 0 0 5.326-2.44 12.86 12.86 0 0 0 3.914-3.903 9.142 9.142 0 0 0 1.516-5.025 7.78 7.78 0 0 0-.5-2.809 8.98 8.98 0 0 0-1.292-2.321c-.64-.784-1.38-1.48-2.202-2.07a28.169 28.169 0 0 0-2.808-1.862 96.459 96.459 0 0 0-3.532-1.912 45.58 45.58 0 0 1-2.452-1.28c-.76-.444-1.5-.921-2.218-1.431a11.11 11.11 0 0 1-2.002-1.757 8.128 8.128 0 0 1-1.266-2.058 6.258 6.258 0 0 1-.527-2.545 5.347 5.347 0 0 1 1.54-3.878 5.433 5.433 0 0 1 4.073-1.582 6.328 6.328 0 0 1 4.97 2.083 9.218 9.218 0 0 1 2.254 5.039l.923.289 5.142-4.01Zm25.638 10.115a5.33 5.33 0 0 0-1.977-1.978 9.538 9.538 0 0 0-2.61-1.015 13.407 13.407 0 0 0-2.992-.316c-1.919-.027-3.827.3-5.629.963a12.23 12.23 0 0 0-4.165 2.545 13.807 13.807 0 0 0-2.742 3.731 17.704 17.704 0 0 0-1.569 4.419 23.003 23.003 0 0 0-.474 4.72 13.853 13.853 0 0 0 .566 3.981 11.85 11.85 0 0 0 1.7 3.495 7.842 7.842 0 0 0 3.099 2.533c1.418.647 2.963.967 4.521.936 4.939 0 9.579-2.172 13.92-6.515l-.527-.765-.659-.158c-3.216 2.48-6.187 3.719-8.911 3.719a6.313 6.313 0 0 1-2.939-.673 5.926 5.926 0 0 1-2.099-1.74 10.536 10.536 0 0 1-1.332-2.453 13.136 13.136 0 0 1-.751-2.703 16.77 16.77 0 0 1-.211-2.638c.006-1.123.103-2.242.29-3.35.207-1.232.516-2.445.923-3.626a7.58 7.58 0 0 1 1.872-3.06 4.041 4.041 0 0 1 2.9-1.2 3.885 3.885 0 0 1 3.585 1.952 9.244 9.244 0 0 1 1.16 4.8l.923.37 4.983-2.953a6.679 6.679 0 0 0-.855-3.02Zm9.663 7.848c.134-1.036.368-2.056.699-3.047.303-.963.733-1.88 1.278-2.73a6.105 6.105 0 0 1 2.044-1.912 5.636 5.636 0 0 1 2.913-.751 5.827 5.827 0 0 1 3.15.83 5.488 5.488 0 0 1 2.043 2.269c.477.965.822 1.989 1.027 3.046.217 1.138.324 2.296.317 3.455 0 1.055-.009 1.935-.027 2.637a32.025 32.025 0 0 1-.184 2.534 15.217 15.217 0 0 1-.435 2.452 12.533 12.533 0 0 1-.804 2.058 5.17 5.17 0 0 1-1.279 1.714 6.329 6.329 0 0 1-1.872 1.055 7.265 7.265 0 0 1-2.57.422 4.683 4.683 0 0 1-2.703-.818 6.054 6.054 0 0 1-1.884-2.018 12.438 12.438 0 0 1-1.134-2.755 18.263 18.263 0 0 1-.607-2.89 21.873 21.873 0 0 1-.158-2.545 24.17 24.17 0 0 1 .186-3.006ZM122.392 39.2c1.915 1.74 4.956 2.61 9.122 2.61 1.54.01 3.076-.166 4.574-.527a13.514 13.514 0 0 0 3.978-1.701 11.775 11.775 0 0 0 3.177-2.941 13.724 13.724 0 0 0 2.083-4.38c.532-1.905.789-3.876.765-5.854a10.964 10.964 0 0 0-3.612-8.494c-2.198-1.968-5.388-2.953-9.57-2.953-4.183 0-7.628 1.292-10.335 3.877a12.948 12.948 0 0 0-4.06 9.786c0 4.713 1.291 8.238 3.875 10.577h.003Zm41.258-20.89c1.406 0 2.408.28 3.006.844a4.615 4.615 0 0 1 1.014 2.375c.221 1.028.358 2.074.409 3.125.035.924.053 2.115.053 3.575-.001 1.894-.014 3.79-.039 5.684-.009.57-.005 1.243.012 2.018.005.577.04 1.154.106 1.727.053.379.123.792.211 1.24.061.375.186.735.369 1.067.158.265.352.505.578.714a4.087 4.087 0 0 0 2.899 1.054c1.319 0 2.83-.669 4.535-2.004a49.62 49.62 0 0 0 4.06-3.773l-.606-.898h-.633a6.434 6.434 0 0 1-3.611 1.398 2.069 2.069 0 0 1-1.53-.554 2.049 2.049 0 0 1-.462-.513 3.785 3.785 0 0 1-.276-1.082 15.269 15.269 0 0 1-.132-2.282c0-.58.031-1.517.092-2.808.049-.919.08-1.838.093-2.757v-1.583c.017-1.706.013-2.888-.013-3.548-.053-.902-.154-1.8-.304-2.69a4.896 4.896 0 0 0-.817-2.348 5.486 5.486 0 0 0-1.635-1.213 5.744 5.744 0 0 0-2.689-.567c-3.093 0-6.679 1.266-10.756 3.798l-.633-.237a5 5 0 0 0-.909-2.703c-.519-.679-1.411-1.016-2.676-1.016-.758.01-1.51.138-2.228.382-.835.28-1.632.66-2.374 1.134-.8.502-1.494.968-2.083 1.398-.589.43-1.27.954-2.043 1.57l.975 1.292c.179-.116.36-.23.541-.343.307-.193.575-.35.804-.475l.817-.435c.283-.154.579-.282.884-.385.233-.08.477-.125.724-.132.305-.007.606.07.87.225.268.177.47.436.578.738.132.32.246.644.342.976.108.446.17.9.185 1.359.036.599.057 1.082.064 1.45.008.369.012.922.013 1.662v.45c0 1.722-.132 6.997-.395 15.824l.659.37 5.932-1.715c-.176-.756-.308-3.138-.396-7.147-.087-3.92-.13-7.842-.128-11.764 3.058-1.653 5.237-2.48 6.538-2.48l.005.002Zm25.573 8.992a.692.692 0 0 1-.158.028c-.263 0-.395-.097-.396-.29.001-.874.067-1.747.199-2.611.148-.942.395-1.867.737-2.757.331-.901.783-1.754 1.345-2.532a6.326 6.326 0 0 1 5.128-2.52 4.143 4.143 0 0 1 3.664 1.821 7.224 7.224 0 0 1 1.239 4.167 1.336 1.336 0 0 1-.883 1.24 43.207 43.207 0 0 1-4.415 1.504c-2.107.619-4.208 1.26-6.301 1.926a.79.79 0 0 0-.158.025h-.001Zm15.66 8.23c-3.165 1.918-5.898 2.876-8.199 2.875a7.514 7.514 0 0 1-4.377-1.291 7.822 7.822 0 0 1-2.754-3.231 9.966 9.966 0 0 1-.884-4.182c11.495-3.569 17.295-5.353 17.401-5.353a1.943 1.943 0 0 0 1.555-2.005 7.517 7.517 0 0 0-.883-3.72 6.439 6.439 0 0 0-2.386-2.466 11.58 11.58 0 0 0-3.256-1.292 16.65 16.65 0 0 0-3.786-.41 15.986 15.986 0 0 0-6.64 1.333 12.732 12.732 0 0 0-4.758 3.561 16.167 16.167 0 0 0-2.755 5.012 17.864 17.864 0 0 0-.949 5.816c0 4.062 1.098 7.103 3.295 9.127 1.986 1.846 4.789 2.768 8.41 2.768a13.592 13.592 0 0 0 5.972-1.45 46.208 46.208 0 0 0 6.393-3.852l-.577-1.027-.822-.212Z" clip-rule="evenodd"/></g></g><defs><clipPath id="a"><path fill="#fff" d="M0 .157h208v40.922H0z"/></clipPath></defs></svg>