<svg xmlns="http://www.w3.org/2000/svg" width="148" height="37" fill="none"><g clip-path="url(#a)"><path fill="#9C9C9C" d="M48.624 35.844V.391h-8.976L20.88 27.747l-3.168-3.976c5.664-.863 8.832-5.845 8.832-11.163 0-5.078-2.784-9.342-6.528-10.971C18.144.822 15.36.39 11.664.39H0v35.453h8.688v-11.45h.096l8.208 11.45h9.168l3.12-5.126h10.272v5.126h9.072ZM8.688 18.214v-9.87h3.456c3.408 0 5.712 1.725 5.712 4.791 0 3.258-2.16 5.078-5.76 5.078H8.688Zm30.864 5.317H33.6l5.856-9.821h.096v9.821ZM85.03 35.844V.391h-8.688l.384 22.422L62.902.39h-7.824v35.453h8.688l-.24-21.655 13.632 21.655h7.872Zm26.198 0v-7.953h-11.04v-6.084h10.704v-7.953h-10.704v-5.51h11.04V.391H91.5v35.453h19.728Zm36.062 0L134.762 18.07 146.522.39h-9.504l-10.032 15.954h-.096V.39h-9.072v35.453h9.072V20.513h.096l9.696 15.331h10.608Z"/></g><defs><clipPath id="a"><path fill="#fff" d="M0 .391h148v35.932H0z"/></clipPath></defs></svg>