<svg xmlns="http://www.w3.org/2000/svg" width="200" height="50" fill="none"><g fill="#9C9C9C" clip-path="url(#a)"><path d="M54.381 46.091c-3.32 0-5.865-.567-7.636-1.7-1.74-1.166-2.609-2.868-2.609-5.105 0-1.134.38-2.064 1.138-2.788.791-.756 1.803-1.134 3.036-1.134.727.032 1.28.22 1.66.567.38.315.57.614.57.898 0 .03-.159.142-.475.33-.316.19-.6.473-.854.85-.253.38-.38.899-.38 1.56 0 1.482.444 2.632 1.329 3.451.917.788 2.324 1.18 4.221 1.18 1.297 0 2.435-.25 3.416-.755.98-.504 1.723-1.165 2.229-1.985.537-.85.806-1.733.806-2.647 0-1.134-.332-2.11-.996-2.93a7.8 7.8 0 0 0-2.371-2.032c-.95-.566-2.246-1.213-3.89-1.938-1.897-.85-3.43-1.622-4.6-2.315a9.89 9.89 0 0 1-2.99-2.741c-.821-1.166-1.232-2.6-1.232-4.301 0-2.74.932-4.789 2.798-6.143 1.898-1.356 4.38-2.033 7.447-2.033 2.403 0 4.49.504 6.261 1.512 1.803 1.009 2.704 2.49 2.704 4.442 0 1.135-.396 2.08-1.186 2.837-.759.724-1.755 1.087-2.988 1.087-.728-.032-1.281-.206-1.66-.52-.38-.347-.57-.662-.57-.945 0-.032.206-.142.617-.332a2.994 2.994 0 0 0 1.138-.85c.348-.379.522-.899.522-1.56 0-1.165-.458-2.08-1.375-2.741-.886-.662-2.024-.992-3.416-.992-1.928 0-3.399.457-4.41 1.37-.981.883-1.471 1.985-1.471 3.309 0 1.102.3 2.032.901 2.788.6.724 1.565 1.449 2.893 2.174a61.317 61.317 0 0 0 3.51 1.701c2.024.913 3.621 1.749 4.791 2.506a9.609 9.609 0 0 1 2.988 2.977c.822 1.227 1.234 2.757 1.234 4.583 0 1.576-.506 3.01-1.518 4.302-.98 1.26-2.325 2.252-4.032 2.976-1.676.725-3.526 1.087-5.55 1.087Zm24.013-.377c-2.15 0-3.858-.647-5.123-1.938-1.265-1.292-1.897-2.994-1.897-5.105v-8.743c0-.819-.032-1.417-.095-1.796-.031-.377-.221-.708-.57-.992-.347-.283-.932-.425-1.754-.425-.38 0-.664-.047-.854-.142-.19-.125-.284-.394-.284-.803 0-.19.063-.363.19-.52.126-.189.316-.299.569-.33 1.992-.285 3.7-.694 5.122-1.23.443-.157.806-.252 1.091-.284h.142c.506 0 .76.3.76.899v14.32c0 1.449.458 2.568 1.375 3.355a4.85 4.85 0 0 0 3.178 1.134c1.486 0 2.75-.362 3.794-1.087s1.74-1.45 2.087-2.174V29.93c0-.82-.031-1.417-.094-1.797-.032-.377-.222-.708-.57-.992-.348-.283-.933-.425-1.755-.425-.38 0-.664-.047-.853-.142-.19-.125-.285-.394-.285-.803 0-.19.063-.363.19-.52.126-.189.316-.299.569-.33 1.992-.285 3.7-.694 5.123-1.23.442-.157.806-.252 1.09-.284h.143c.506 0 .759.3.759.899v16.353c0 1.86 1.249 2.788 3.747 2.788.537 0 .806.3.806.899 0 .44-.269.708-.806.802l-7.637.52c-.221 0-.348-.079-.38-.235-.03-.127-.047-.363-.047-.71v-2.647h-.094c-.726.68-1.47 1.342-2.23 1.984-.569.441-1.312.82-2.23 1.135-.885.346-1.944.52-3.177.52Zm19.196-.425a.72.72 0 0 1-.57-.285 1.163 1.163 0 0 1-.19-.66c.032-.41.127-.647.285-.709.159-.095.443-.143.854-.143.822 0 1.407-.142 1.755-.425.348-.283.538-.615.569-.992.064-.38.095-.977.095-1.797V29.456c0-.819-.031-1.418-.095-1.797-.031-.377-.221-.708-.569-.99-.348-.284-.933-.427-1.755-.427-.38 0-.664-.047-.853-.142-.19-.126-.285-.393-.285-.803 0-.189.063-.363.19-.52.126-.189.316-.299.569-.33 2.055-.316 3.747-.725 5.075-1.23.538-.157.901-.252 1.091-.283h.142c.506 0 .759.3.759.898v2.93h.142c1.107-1.103 2.23-1.97 3.368-2.6 1.139-.66 2.166-.991 3.083-.991 1.044 0 1.866.393 2.467 1.18.632.757.948 1.64.948 2.648 0 .882-.268 1.67-.806 2.362-.538.694-1.281 1.04-2.229 1.04a2.444 2.444 0 0 1-1.186-.283c-.316-.19-.49-.347-.522-.473.032-.062.19-.252.474-.567.285-.347.427-.74.427-1.181 0-.568-.158-1.024-.474-1.37-.285-.348-.68-.52-1.186-.52-.537 0-1.217.267-2.039.803-.823.504-1.629 1.15-2.419 1.937v11.531c0 .82.031 1.418.094 1.797.064.377.269.709.617.992.348.283.933.425 1.755.425h.285c.253 0 .442.048.569.142.126.095.205.331.237.709 0 .252-.063.473-.19.661-.126.19-.316.285-.569.285a97.556 97.556 0 0 0-4.98-.143c-1.423 0-3.067.05-4.933.143Zm73.667.425c-2.15 0-4.063-.505-5.739-1.513-1.676-1.04-2.988-2.395-3.937-4.064a11.2 11.2 0 0 1-1.375-5.388c0-2.363.553-4.41 1.66-6.144 1.107-1.764 2.514-3.104 4.221-4.017 1.708-.945 3.431-1.417 5.17-1.417 2.151 0 4.064.519 5.74 1.559a10.456 10.456 0 0 1 3.889 4.064 10.638 10.638 0 0 1 1.423 5.34c0 2.364-.569 4.428-1.707 6.192-1.107 1.733-2.514 3.072-4.222 4.017-1.707.914-3.415 1.371-5.123 1.371Zm0-1.749c2.151 0 3.716-.914 4.696-2.741 1.012-1.827 1.518-4.19 1.518-7.089 0-2.71-.522-4.915-1.565-6.617-1.012-1.732-2.562-2.599-4.649-2.599-2.181 0-3.762.899-4.743 2.694-.98 1.796-1.47 4.143-1.47 7.042 0 2.709.506 4.947 1.518 6.71 1.012 1.734 2.577 2.6 4.695 2.6Zm23.004 1.985c-1.55 0-2.878-.567-3.985-1.701-1.106-1.135-1.66-2.757-1.66-4.868V25.486l-2.751.095a.582.582 0 0 1-.474-.236 1.08 1.08 0 0 1-.19-.615c0-.284.048-.52.142-.709.127-.22.301-.346.522-.378 1.107-.22 1.961-.567 2.562-1.04.632-.504 1.091-1.04 1.375-1.606.285-.599.633-1.497 1.044-2.695.158-.41.506-.614 1.043-.614.221 0 .443.063.664.19.221.094.332.251.332.472l-.332 5.388 5.55-.332h.095c.411 0 .616.3.616.899 0 .346-.063.677-.19.992-.094.284-.221.426-.379.426l-5.312-.142v14.367c0 1.04.205 1.906.616 2.6.443.693 1.154 1.04 2.135 1.04.98 0 1.85-.175 2.608-.52.412-.159.664-.237.759-.237.222 0 .396.094.522.283.127.158.253.38.38.662.034.074.05.155.047.236 0 .126-.095.268-.285.425-.917.6-1.786.994-2.608 1.182-.791.22-1.74.33-2.846.33Zm-76.664-.946c.126.19.316.284.569.284a94.941 94.941 0 0 1 4.933-.142c2.119 0 4.095.048 5.929.142a.601.601 0 0 0 .522-.284c.126-.19.189-.409.189-.661-.031-.378-.11-.614-.237-.709-.095-.094-.284-.142-.569-.142h-.285c-1.043 0-1.786-.079-2.229-.236-.443-.157-.743-.441-.901-.85-.158-.442-.237-1.15-.237-2.127v-14.7h5.028a.724.724 0 0 0 .569-.283.999.999 0 0 0 .237-.662c-.032-.377-.127-.614-.285-.709-.126-.125-.332-.19-.616-.19h-4.933v-2.834c0-1.512.063-2.836.189-3.97a7.642 7.642 0 0 1 1.091-3.214c.601-.976 1.534-1.465 2.799-1.465.145 0 .286.008.422.025-.018-.53.017-1.059.104-1.582a7.844 7.844 0 0 0-.194-.003c-2.783.063-4.949 1.118-6.498 3.167-1.518 2.017-2.277 4.648-2.277 7.892v1.986h-2.846c-.411 0-.696.047-.854.141-.158.063-.253.316-.284.756 0 .253.063.473.189.662.159.19.364.284.617.284h3.178v14.698c0 .852-.032 1.466-.095 1.844-.031.346-.221.662-.569.945-.348.283-.933.425-1.755.425-.411 0-.696.048-.854.142-.126.063-.205.3-.237.709 0 .252.063.473.19.661Z"/><path fill-rule="evenodd" d="M142.952 10.01a5.257 5.257 0 0 1-5.27 5.25 5.27 5.27 0 0 1-3.724-1.535 5.254 5.254 0 0 1-1.546-3.714 5.24 5.24 0 0 1 1.545-3.716 5.273 5.273 0 0 1 3.725-1.536 5.277 5.277 0 0 1 3.725 1.536 5.26 5.26 0 0 1 1.545 3.716Zm-5.27 2.626a2.639 2.639 0 0 0 1.862-.768 2.631 2.631 0 0 0 .773-1.857 2.611 2.611 0 0 0-.772-1.858 2.643 2.643 0 0 0-3.725 0 2.626 2.626 0 0 0-.773 1.857 2.628 2.628 0 0 0 2.635 2.626Zm-2.31 4.91v25.322c0 .282.08.502.238.66.158.19.379.284.664.284.284 0 .521-.126.711-.378.19-.22.364-.552.522-.993.158-.44.3-.787.427-1.04h.237c2.055 1.544 4.49 2.316 7.304 2.316 1.898 0 3.684-.504 5.36-1.512 1.676-1.008 3.004-2.379 3.985-4.112 1.011-1.764 1.517-3.702 1.517-5.813 0-2.142-.442-4.048-1.328-5.719-.853-1.7-2.039-3.024-3.557-3.97-1.518-.944-3.21-1.417-5.075-1.417-1.139 0-2.293.236-3.463.71-1.138.44-2.166 1.117-3.083 2.031h-.142v-6.284a7.995 7.995 0 0 1-4.317-.086Zm14.325 21.965c-1.17 1.733-2.72 2.6-4.648 2.6-1.012 0-1.913-.22-2.704-.662-.759-.441-1.376-.961-1.85-1.56-.443-.63-.711-1.198-.806-1.7V25.711c1.359-1.45 3.035-2.175 5.028-2.175 2.245 0 3.936.882 5.075 2.647 1.138 1.733 1.707 3.828 1.707 6.285 0 2.93-.6 5.278-1.802 7.042ZM12.7.53a1.982 1.982 0 0 1 2.298 0c8.56 6.092 12.44 13.395 12.685 23.874.113 5.004-.37 9.585-1.841 13.543-1.51 3.96-4.193 7.618-8.143 10.709a1.982 1.982 0 0 1-1.76.339c-1.21-.346-1.416-1.776-2.09-2.666-.674.89-.878 2.319-2.09 2.665a1.982 1.982 0 0 1-1.759-.34c-3.95-3.089-6.634-6.747-8.143-10.707C.387 33.99-.097 29.408.016 24.405.26 13.926 4.14 6.622 12.7.531Zm4.426 43.612c2.472-2.266 3.962-4.736 5.014-7.578 1.325-3.473 1.707-7.312 1.592-12.068-.19-8.171-2.11-13.488-7.923-18.425v14.44c2.273.584 3.293 2.805 3.293 5.25 0 2.448-1.02 4.67-3.293 5.253V42.83s1.056.97 1.317 1.313Zm-6.588 0c-2.472-2.266-3.927-4.736-4.98-7.578-1.324-3.473-1.706-7.312-1.59-12.068.19-8.154 2.099-13.494 7.888-18.425v14.44c-2.273.584-3.294 2.805-3.294 5.25 0 2.448 1.02 4.67 3.294 5.253V42.83s-1.066.983-1.318 1.313Zm3.294-21.005c-.698 0-1.368.275-1.862.768a2.625 2.625 0 0 0-.773 1.857 2.63 2.63 0 0 0 2.635 2.626c.698 0 1.368-.276 1.862-.768s.772-1.16.773-1.857a2.63 2.63 0 0 0-2.635-2.626Z" clip-rule="evenodd"/></g><defs><clipPath id="a"><path fill="#fff" d="M0 .164h200v48.907H0z"/></clipPath></defs></svg>