<svg xmlns="http://www.w3.org/2000/svg" width="196" height="35" fill="none"><g clip-path="url(#a)"><path fill="#9C9C9C" d="M21.644 35.038a7 7 0 0 1-3.38-.767 6.865 6.865 0 0 1-2.574-2.286 11.645 11.645 0 0 1-7.47 3.053c-4.987 0-7.69-3.457-6.777-8.414.694-3.727 3.799-7.462 4.667-10.46-1.68-1.006-4.174-1.707-5.343.35L0 16.054c.612-2.253 2.091-3.753 4.228-3.753 2.137 0 3.717 1.248 5.754.1h1.625c-.867 4.489-3.059 8.08-4.228 14.366-.712 3.853.612 5.603 2.85 5.603a6.793 6.793 0 0 0 4.273-2.254 17.942 17.942 0 0 1-1.324-6.905c0-5.46 2.548-11.215 6.822-11.215 2.192 0 3.817 1.499 3.817 5.055 0 3.556-2.191 9.06-4.986 12.517.151.823.59 1.569 1.24 2.109.65.539 1.471.838 2.322.846 4.073 0 6.922-6.009 6.922-11.566 0-5.558-2.447-5.307-2.237-7.183a1.783 1.783 0 0 1 .627-1.22c.364-.31.838-.464 1.318-.432 1.27 0 2.94 1.58 2.94 7.992 0 8.17-4.419 14.923-10.319 14.923Zm-.922-20.221c-1.27 0-2.494 4.606-2.649 9.365-.06 1.018-.04 2.038.055 3.053a23.683 23.683 0 0 0 3.415-10.264c-.009-1.617-.31-2.155-.822-2.155h.001Zm19.607 20.015a3.713 3.713 0 0 1-1.577-.181 3.661 3.661 0 0 1-1.35-.82 3.586 3.586 0 0 1-.868-1.307 3.535 3.535 0 0 1-.224-1.545c0-2.2 2.905-13.164 2.905-14.969 0-.852-.201-1.355-.968-1.355a4.45 4.45 0 0 0-2.293 1.104v-1.553a7.547 7.547 0 0 1 4.84-1.949 3.756 3.756 0 0 1 1.583.2c.506.18.966.464 1.349.836.382.372.678.82.866 1.318.187.495.263 1.025.22 1.552 0 2.2-2.903 13.12-2.903 14.915 0 .853.2 1.356.968 1.356a4.804 4.804 0 0 0 2.292-1.05v1.498a7.445 7.445 0 0 1-4.84 1.95Zm3.561-31.69c.398-.011.794.06 1.161.214.366.154.695.384.961.674a2.655 2.655 0 0 1 .682 2.166 3.428 3.428 0 0 1-1.121 2.154c-.63.563-1.44.882-2.285.9a2.78 2.78 0 0 1-1.16-.215 2.74 2.74 0 0 1-.962-.673 2.655 2.655 0 0 1-.682-2.166 3.43 3.43 0 0 1 1.121-2.154 3.54 3.54 0 0 1 2.285-.9Zm11.306 26.985c-.255 1.355-.1 2.298.868 2.298a4.601 4.601 0 0 0 2.292-1.05l.091 1.507a7.547 7.547 0 0 1-4.84 1.95c-3.16 0-4.383-2.254-3.917-5.056l3.105-17.375c1.032-5.8.675-6.564-2.485-6.564l.201-1.4 9.525-1.24-4.84 26.93Zm26.786-.046c-.256 1.356-.156 2.353.867 2.353.85-.158 1.64-.54 2.293-1.105v1.553a7.372 7.372 0 0 1-4.84 1.95 3.697 3.697 0 0 1-2.531-.765 3.58 3.58 0 0 1-1.342-2.244 8.286 8.286 0 0 1-2.877 2.367 8.433 8.433 0 0 1-3.643.884c-6.055 0-8.603-5.253-7.434-11.566 1.169-6.312 6.62-11.466 12.785-11.466 1.457-.03 2.9.306 4.192.978l.155-.799c1.206-6.178.649-6.384-2.511-6.384l.155-1.4 9.57-1.24-4.84 26.885.001-.001Zm-6.567-15.776c-3.516 0-5.853 4.103-6.776 9.158-.968 5.307-.356 8.98 2.95 8.98 2.237 0 4.785-2.695 5.552-6.807l1.882-10.415a6.542 6.542 0 0 0-3.608-.916Zm22.658 20.777c-7.078 0-9.014-5.01-8.146-9.814l2.31-12.867c1.069-5.809.713-6.61-2.447-6.61l.2-1.4 9.553-1.194-1.936 10.91a8.62 8.62 0 0 1 5.343-2.056c6.164 0 9.059 5.154 7.945 11.466-1.114 6.313-6.785 11.565-12.822 11.565Zm3.306-20.652a4.93 4.93 0 0 0-2.845.972 4.796 4.796 0 0 0-1.721 2.43l-1.425 8.082c-.868 4.804.868 6.762 3.06 6.762 3.205 0 5.196-3.502 6.264-9.258.95-5.154.083-8.96-3.342-8.96l.009-.028Zm19.169 11.997c0 3.852 1.881 5.908 5.479 5.908 1.827 0 4.484-1.247 6.165-2.9l.712 1.598a13.17 13.17 0 0 1-4.267 2.962 13.345 13.345 0 0 1-5.103 1.096c-5.342 0-8.959-3.905-8.959-9.212 0-7.858 6.621-13.82 12.987-13.82 3.872 0 6.054 2.102 6.054 4.553-.045 3.807-3.716 8.082-13.068 9.815Zm6.566-12.069c-2.904 0-5.698 4.157-6.466 10.111 5.854-1.401 8.347-5.307 8.402-7.812-.009-1.4-.676-2.299-1.945-2.299h.009Zm27.279 20.474a3.698 3.698 0 0 1-2.531-.765 3.58 3.58 0 0 1-1.341-2.244 7.988 7.988 0 0 1-2.806 2.369 8.13 8.13 0 0 1-3.587.881c-5.954 0-8.502-5.252-7.306-11.565 1.196-6.312 6.557-11.458 12.74-11.458a9.772 9.772 0 0 1 3.817.755h5.808l-3.114 17.276c-.256 1.356-.155 2.353.868 2.353a4.864 4.864 0 0 0 2.292-1.105v1.553a7.372 7.372 0 0 1-4.84 1.95Zm-4.685-20.527c-3.416 0-5.808 4.103-6.722 9.158-.968 5.307-.301 8.98 2.74 8.98 2.338 0 4.84-2.801 5.553-6.807l1.881-10.415a5.977 5.977 0 0 0-3.443-.916h-.009Zm27.297 3.654c-1.379 0-1.736-1.05-2.137-2.155a2.462 2.462 0 0 0-.929-1.394 2.533 2.533 0 0 0-1.619-.492c-.754-.04-1.496.2-2.083.673a2.968 2.968 0 0 0-1.077 1.877c-.155 1.357.867 2.506 2.803 4.157l2.594 2.102a6.56 6.56 0 0 1 2.164 2.794 6.444 6.444 0 0 1 .384 3.492c-.658 3.753-3.817 6.06-8.046 6.06-5.096 0-8.347-2.954-7.991-4.956a2.235 2.235 0 0 1 .763-1.356c.41-.35.933-.543 1.475-.548 1.324 0 1.826.997 2.237 2.299.264.748.771 1.39 1.443 1.824a3.7 3.7 0 0 0 2.274.582 3.224 3.224 0 0 0 2.184-.716 3.121 3.121 0 0 0 1.122-1.977c.201-1.796-.913-2.9-3.004-4.76l-2.548-2.2a6.289 6.289 0 0 1-2.028-2.602 6.187 6.187 0 0 1-.42-3.251c.457-2.407 2.74-5.388 7.991-5.388 4.073 0 6.621 2.254 6.393 4.058a1.96 1.96 0 0 1-.6 1.313c-.36.347-.841.549-1.345.564Zm18.639-3.143h-4.941l-2.392 13.307c-.512 2.757-.101 4.006 1.424 4.006.813 0 2.091-.45 3.918-2.299l.1 1.948a8.878 8.878 0 0 1-3.015 2.276 9.018 9.018 0 0 1-3.706.83c-3.461 0-5.196-2.405-4.374-6.86l2.392-13.208h-3.863l.302-2.056h3.899l1.023-5.953h5.699l-1.069 5.952h4.941l-.338 2.057Z"/></g><defs><clipPath id="a"><path fill="#fff" d="M0 .15h196v33.935H0z"/></clipPath></defs></svg>